<?xml version="1.0" encoding="UTF-8"?>
<svg id="_圖層_1" data-name="圖層 1" xmlns="http://www.w3.org/2000/svg" xmlns:xlink="http://www.w3.org/1999/xlink" viewBox="0 0 24 24">
  <defs>
    <style>
      .cls-1 {
        fill: aqua;
      }
    </style>
    <symbol id="_搜尋" data-name="搜尋" viewBox="0 0 35.87 34.79">
      <g>
        <path d="M.29,30.63c-.42-.46-.38-1.19,.08-1.6l9.6-8.72c.46-.42,1.18-.38,1.6,.08l3.43,3.79c.42,.46,.38,1.19-.08,1.6l-9.6,8.72c-.46,.42-1.18,.38-1.6-.08L.29,30.63Z"/>
        <path d="M23.3,0c1.36,0,2.75,.22,4.11,.69,6.56,2.27,10.03,9.42,7.77,15.98-1.8,5.2-6.67,8.46-11.87,8.46-1.36,0-2.75-.22-4.11-.69-6.56-2.27-10.03-9.42-7.76-15.98C13.23,3.26,18.09,0,23.3,0m0,3.41c-3.9,0-7.38,2.48-8.65,6.17-.8,2.31-.65,4.8,.42,7,1.07,2.2,2.93,3.85,5.24,4.65,.97,.34,1.98,.51,3,.51,3.9,0,7.38-2.48,8.65-6.17,.8-2.31,.65-4.8-.42-7-1.07-2.2-2.93-3.85-5.24-4.65h0c-.97-.34-1.98-.51-2.99-.51h0Z"/>
      </g>
    </symbol>
  </defs>
  <circle class="cls-1" cx="12" cy="12" r="12"/>
  <use width="35.87" height="34.79" transform="translate(4.8 5) scale(.4)" xlink:href="#_搜尋"/>
</svg>