<svg width="279" height="184" viewBox="0 0 279 184" fill="none" xmlns="http://www.w3.org/2000/svg">
<path d="M28.75 17.25H35.9375M28.75 23H35.9375M28.75 28.75H35.9375M8.625 37.375H37.375C38.5187 37.375 39.6156 36.9206 40.4244 36.1119C41.2331 35.3031 41.6875 34.2062 41.6875 33.0625V12.9375C41.6875 11.7938 41.2331 10.6969 40.4244 9.8881C39.6156 9.07935 38.5187 8.625 37.375 8.625H8.625C7.48125 8.625 6.38435 9.07935 5.5756 9.8881C4.76685 10.6969 4.3125 11.7938 4.3125 12.9375V33.0625C4.3125 34.2062 4.76685 35.3031 5.5756 36.1119C6.38435 36.9206 7.48125 37.375 8.625 37.375ZM20.125 17.9687C20.125 18.4407 20.032 18.908 19.8514 19.344C19.6708 19.78 19.4061 20.1762 19.0724 20.5099C18.7387 20.8436 18.3425 21.1083 17.9065 21.2889C17.4705 21.4695 17.0032 21.5625 16.5312 21.5625C16.0593 21.5625 15.592 21.4695 15.156 21.2889C14.72 21.1083 14.3238 20.8436 13.9901 20.5099C13.6564 20.1762 13.3917 19.78 13.2111 19.344C13.0305 18.908 12.9375 18.4407 12.9375 17.9687C12.9375 17.0156 13.3161 16.1015 13.9901 15.4276C14.664 14.7536 15.5781 14.375 16.5312 14.375C17.4844 14.375 18.3985 14.7536 19.0724 15.4276C19.7464 16.1015 20.125 17.0156 20.125 17.9687ZM22.6052 30.1128C20.7351 31.1088 18.6482 31.6283 16.5293 31.625C14.4118 31.6276 12.3263 31.1082 10.4573 30.1128C10.914 28.8693 11.7414 27.796 12.8276 27.0378C13.9138 26.2796 15.2066 25.873 16.5312 25.873C17.8559 25.873 19.1487 26.2796 20.2349 27.0378C21.3211 27.796 22.1485 28.8693 22.6052 30.1128Z" stroke="black" stroke-width="1.5" stroke-linecap="round" stroke-linejoin="round"/>
<path d="M28.75 86.25H35.9375M28.75 92H35.9375M28.75 97.75H35.9375M8.625 106.375H37.375C38.5187 106.375 39.6156 105.921 40.4244 105.112C41.2331 104.303 41.6875 103.206 41.6875 102.062V81.9375C41.6875 80.7938 41.2331 79.6969 40.4244 78.8881C39.6156 78.0794 38.5187 77.625 37.375 77.625H8.625C7.48125 77.625 6.38435 78.0794 5.5756 78.8881C4.76685 79.6969 4.3125 80.7938 4.3125 81.9375V102.062C4.3125 103.206 4.76685 104.303 5.5756 105.112C6.38435 105.921 7.48125 106.375 8.625 106.375ZM20.125 86.9687C20.125 87.4407 20.032 87.908 19.8514 88.344C19.6708 88.78 19.4061 89.1762 19.0724 89.5099C18.7387 89.8436 18.3425 90.1083 17.9065 90.2889C17.4705 90.4695 17.0032 90.5625 16.5312 90.5625C16.0593 90.5625 15.592 90.4695 15.156 90.2889C14.72 90.1083 14.3238 89.8436 13.9901 89.5099C13.6564 89.1762 13.3917 88.78 13.2111 88.344C13.0305 87.908 12.9375 87.4407 12.9375 86.9687C12.9375 86.0156 13.3161 85.1015 13.9901 84.4276C14.664 83.7536 15.5781 83.375 16.5312 83.375C17.4844 83.375 18.3985 83.7536 19.0724 84.4276C19.7464 85.1015 20.125 86.0156 20.125 86.9687ZM22.6052 99.1128C20.7351 100.109 18.6482 100.628 16.5293 100.625C14.4118 100.628 12.3263 100.108 10.4573 99.1128C10.914 97.8693 11.7414 96.796 12.8276 96.0378C13.9138 95.2796 15.2066 94.873 16.5312 94.873C17.8559 94.873 19.1487 95.2796 20.2349 96.0378C21.3211 96.796 22.1485 97.8693 22.6052 99.1128Z" stroke="black" stroke-width="1.5" stroke-linecap="round" stroke-linejoin="round"/>
<path d="M28.75 155.25H35.9375M28.75 161H35.9375M28.75 166.75H35.9375M8.625 175.375H37.375C38.5187 175.375 39.6156 174.921 40.4244 174.112C41.2331 173.303 41.6875 172.206 41.6875 171.062V150.937C41.6875 149.794 41.2331 148.697 40.4244 147.888C39.6156 147.079 38.5187 146.625 37.375 146.625H8.625C7.48125 146.625 6.38435 147.079 5.5756 147.888C4.76685 148.697 4.3125 149.794 4.3125 150.937V171.062C4.3125 172.206 4.76685 173.303 5.5756 174.112C6.38435 174.921 7.48125 175.375 8.625 175.375ZM20.125 155.969C20.125 156.441 20.032 156.908 19.8514 157.344C19.6708 157.78 19.4061 158.176 19.0724 158.51C18.7387 158.844 18.3425 159.108 17.9065 159.289C17.4705 159.47 17.0032 159.562 16.5312 159.562C16.0593 159.562 15.592 159.47 15.156 159.289C14.72 159.108 14.3238 158.844 13.9901 158.51C13.6564 158.176 13.3917 157.78 13.2111 157.344C13.0305 156.908 12.9375 156.441 12.9375 155.969C12.9375 155.016 13.3161 154.102 13.9901 153.428C14.664 152.754 15.5781 152.375 16.5312 152.375C17.4844 152.375 18.3985 152.754 19.0724 153.428C19.7464 154.102 20.125 155.016 20.125 155.969ZM22.6052 168.113C20.7351 169.109 18.6482 169.628 16.5293 169.625C14.4118 169.628 12.3263 169.108 10.4573 168.113C10.914 166.869 11.7414 165.796 12.8276 165.038C13.9138 164.28 15.2066 163.873 16.5312 163.873C17.8559 163.873 19.1487 164.28 20.2349 165.038C21.3211 165.796 22.1485 166.869 22.6052 168.113Z" stroke="black" stroke-width="1.5" stroke-linecap="round" stroke-linejoin="round"/>
<path d="M104.75 17.25H111.937M104.75 23H111.937M104.75 28.75H111.937M84.625 37.375H113.375C114.519 37.375 115.616 36.9206 116.424 36.1119C117.233 35.3031 117.687 34.2062 117.687 33.0625V12.9375C117.687 11.7938 117.233 10.6969 116.424 9.8881C115.616 9.07935 114.519 8.625 113.375 8.625H84.625C83.4813 8.625 82.3844 9.07935 81.5756 9.8881C80.7669 10.6969 80.3125 11.7938 80.3125 12.9375V33.0625C80.3125 34.2062 80.7669 35.3031 81.5756 36.1119C82.3844 36.9206 83.4813 37.375 84.625 37.375ZM96.125 17.9687C96.125 18.4407 96.032 18.908 95.8514 19.344C95.6708 19.78 95.4061 20.1762 95.0724 20.5099C94.7387 20.8436 94.3425 21.1083 93.9065 21.2889C93.4705 21.4695 93.0032 21.5625 92.5312 21.5625C92.0593 21.5625 91.592 21.4695 91.156 21.2889C90.72 21.1083 90.3238 20.8436 89.9901 20.5099C89.6564 20.1762 89.3917 19.78 89.2111 19.344C89.0305 18.908 88.9375 18.4407 88.9375 17.9687C88.9375 17.0156 89.3161 16.1015 89.9901 15.4276C90.664 14.7536 91.5781 14.375 92.5312 14.375C93.4844 14.375 94.3985 14.7536 95.0724 15.4276C95.7464 16.1015 96.125 17.0156 96.125 17.9687ZM98.6052 30.1128C96.7351 31.1088 94.6482 31.6283 92.5293 31.625C90.4118 31.6276 88.3263 31.1082 86.4573 30.1128C86.914 28.8693 87.7414 27.796 88.8276 27.0378C89.9138 26.2796 91.2066 25.873 92.5312 25.873C93.8559 25.873 95.1487 26.2796 96.2349 27.0378C97.3211 27.796 98.1485 28.8693 98.6052 30.1128Z" stroke="black" stroke-width="1.5" stroke-linecap="round" stroke-linejoin="round"/>
<path d="M104.75 86.25H111.937M104.75 92H111.937M104.75 97.75H111.937M84.625 106.375H113.375C114.519 106.375 115.616 105.921 116.424 105.112C117.233 104.303 117.687 103.206 117.687 102.062V81.9375C117.687 80.7938 117.233 79.6969 116.424 78.8881C115.616 78.0794 114.519 77.625 113.375 77.625H84.625C83.4813 77.625 82.3844 78.0794 81.5756 78.8881C80.7669 79.6969 80.3125 80.7938 80.3125 81.9375V102.062C80.3125 103.206 80.7669 104.303 81.5756 105.112C82.3844 105.921 83.4813 106.375 84.625 106.375ZM96.125 86.9687C96.125 87.4407 96.032 87.908 95.8514 88.344C95.6708 88.78 95.4061 89.1762 95.0724 89.5099C94.7387 89.8436 94.3425 90.1083 93.9065 90.2889C93.4705 90.4695 93.0032 90.5625 92.5312 90.5625C92.0593 90.5625 91.592 90.4695 91.156 90.2889C90.72 90.1083 90.3238 89.8436 89.9901 89.5099C89.6564 89.1762 89.3917 88.78 89.2111 88.344C89.0305 87.908 88.9375 87.4407 88.9375 86.9687C88.9375 86.0156 89.3161 85.1015 89.9901 84.4276C90.664 83.7536 91.5781 83.375 92.5312 83.375C93.4844 83.375 94.3985 83.7536 95.0724 84.4276C95.7464 85.1015 96.125 86.0156 96.125 86.9687ZM98.6052 99.1128C96.7351 100.109 94.6482 100.628 92.5293 100.625C90.4118 100.628 88.3263 100.108 86.4573 99.1128C86.914 97.8693 87.7414 96.796 88.8276 96.0378C89.9138 95.2796 91.2066 94.873 92.5312 94.873C93.8559 94.873 95.1487 95.2796 96.2349 96.0378C97.3211 96.796 98.1485 97.8693 98.6052 99.1128Z" stroke="black" stroke-width="1.5" stroke-linecap="round" stroke-linejoin="round"/>
<path d="M104.75 155.25H111.937M104.75 161H111.937M104.75 166.75H111.937M84.625 175.375H113.375C114.519 175.375 115.616 174.921 116.424 174.112C117.233 173.303 117.687 172.206 117.687 171.062V150.937C117.687 149.794 117.233 148.697 116.424 147.888C115.616 147.079 114.519 146.625 113.375 146.625H84.625C83.4813 146.625 82.3844 147.079 81.5756 147.888C80.7669 148.697 80.3125 149.794 80.3125 150.937V171.062C80.3125 172.206 80.7669 173.303 81.5756 174.112C82.3844 174.921 83.4813 175.375 84.625 175.375ZM96.125 155.969C96.125 156.441 96.032 156.908 95.8514 157.344C95.6708 157.78 95.4061 158.176 95.0724 158.51C94.7387 158.844 94.3425 159.108 93.9065 159.289C93.4705 159.47 93.0032 159.562 92.5312 159.562C92.0593 159.562 91.592 159.47 91.156 159.289C90.72 159.108 90.3238 158.844 89.9901 158.51C89.6564 158.176 89.3917 157.78 89.2111 157.344C89.0305 156.908 88.9375 156.441 88.9375 155.969C88.9375 155.016 89.3161 154.102 89.9901 153.428C90.664 152.754 91.5781 152.375 92.5312 152.375C93.4844 152.375 94.3985 152.754 95.0724 153.428C95.7464 154.102 96.125 155.016 96.125 155.969ZM98.6052 168.113C96.7351 169.109 94.6482 169.628 92.5293 169.625C90.4118 169.628 88.3263 169.108 86.4573 168.113C86.914 166.869 87.7414 165.796 88.8276 165.038C89.9138 164.28 91.2066 163.873 92.5312 163.873C93.8559 163.873 95.1487 164.28 96.2349 165.038C97.3211 165.796 98.1485 166.869 98.6052 168.113Z" stroke="black" stroke-width="1.5" stroke-linecap="round" stroke-linejoin="round"/>
<path d="M185.75 17.25H192.937M185.75 23H192.937M185.75 28.75H192.937M165.625 37.375H194.375C195.519 37.375 196.616 36.9206 197.424 36.1119C198.233 35.3031 198.687 34.2062 198.687 33.0625V12.9375C198.687 11.7938 198.233 10.6969 197.424 9.8881C196.616 9.07935 195.519 8.625 194.375 8.625H165.625C164.481 8.625 163.384 9.07935 162.576 9.8881C161.767 10.6969 161.312 11.7938 161.312 12.9375V33.0625C161.312 34.2062 161.767 35.3031 162.576 36.1119C163.384 36.9206 164.481 37.375 165.625 37.375ZM177.125 17.9687C177.125 18.4407 177.032 18.908 176.851 19.344C176.671 19.78 176.406 20.1762 176.072 20.5099C175.739 20.8436 175.343 21.1083 174.907 21.2889C174.471 21.4695 174.003 21.5625 173.531 21.5625C173.059 21.5625 172.592 21.4695 172.156 21.2889C171.72 21.1083 171.324 20.8436 170.99 20.5099C170.656 20.1762 170.392 19.78 170.211 19.344C170.03 18.908 169.937 18.4407 169.937 17.9687C169.937 17.0156 170.316 16.1015 170.99 15.4276C171.664 14.7536 172.578 14.375 173.531 14.375C174.484 14.375 175.398 14.7536 176.072 15.4276C176.746 16.1015 177.125 17.0156 177.125 17.9687ZM179.605 30.1128C177.735 31.1088 175.648 31.6283 173.529 31.625C171.412 31.6276 169.326 31.1082 167.457 30.1128C167.914 28.8693 168.741 27.796 169.828 27.0378C170.914 26.2796 172.207 25.873 173.531 25.873C174.856 25.873 176.149 26.2796 177.235 27.0378C178.321 27.796 179.148 28.8693 179.605 30.1128Z" stroke="black" stroke-width="1.5" stroke-linecap="round" stroke-linejoin="round"/>
<path d="M185.75 86.25H192.937M185.75 92H192.937M185.75 97.75H192.937M165.625 106.375H194.375C195.519 106.375 196.616 105.921 197.424 105.112C198.233 104.303 198.687 103.206 198.687 102.062V81.9375C198.687 80.7938 198.233 79.6969 197.424 78.8881C196.616 78.0794 195.519 77.625 194.375 77.625H165.625C164.481 77.625 163.384 78.0794 162.576 78.8881C161.767 79.6969 161.312 80.7938 161.312 81.9375V102.062C161.312 103.206 161.767 104.303 162.576 105.112C163.384 105.921 164.481 106.375 165.625 106.375ZM177.125 86.9687C177.125 87.4407 177.032 87.908 176.851 88.344C176.671 88.78 176.406 89.1762 176.072 89.5099C175.739 89.8436 175.343 90.1083 174.907 90.2889C174.471 90.4695 174.003 90.5625 173.531 90.5625C173.059 90.5625 172.592 90.4695 172.156 90.2889C171.72 90.1083 171.324 89.8436 170.99 89.5099C170.656 89.1762 170.392 88.78 170.211 88.344C170.03 87.908 169.937 87.4407 169.937 86.9687C169.937 86.0156 170.316 85.1015 170.99 84.4276C171.664 83.7536 172.578 83.375 173.531 83.375C174.484 83.375 175.398 83.7536 176.072 84.4276C176.746 85.1015 177.125 86.0156 177.125 86.9687ZM179.605 99.1128C177.735 100.109 175.648 100.628 173.529 100.625C171.412 100.628 169.326 100.108 167.457 99.1128C167.914 97.8693 168.741 96.796 169.828 96.0378C170.914 95.2796 172.207 94.873 173.531 94.873C174.856 94.873 176.149 95.2796 177.235 96.0378C178.321 96.796 179.148 97.8693 179.605 99.1128Z" stroke="black" stroke-width="1.5" stroke-linecap="round" stroke-linejoin="round"/>
<path d="M185.75 155.25H192.937M185.75 161H192.937M185.75 166.75H192.937M165.625 175.375H194.375C195.519 175.375 196.616 174.921 197.424 174.112C198.233 173.303 198.687 172.206 198.687 171.062V150.937C198.687 149.794 198.233 148.697 197.424 147.888C196.616 147.079 195.519 146.625 194.375 146.625H165.625C164.481 146.625 163.384 147.079 162.576 147.888C161.767 148.697 161.312 149.794 161.312 150.937V171.062C161.312 172.206 161.767 173.303 162.576 174.112C163.384 174.921 164.481 175.375 165.625 175.375ZM177.125 155.969C177.125 156.441 177.032 156.908 176.851 157.344C176.671 157.78 176.406 158.176 176.072 158.51C175.739 158.844 175.343 159.108 174.907 159.289C174.471 159.47 174.003 159.562 173.531 159.562C173.059 159.562 172.592 159.47 172.156 159.289C171.72 159.108 171.324 158.844 170.99 158.51C170.656 158.176 170.392 157.78 170.211 157.344C170.03 156.908 169.937 156.441 169.937 155.969C169.937 155.016 170.316 154.102 170.99 153.428C171.664 152.754 172.578 152.375 173.531 152.375C174.484 152.375 175.398 152.754 176.072 153.428C176.746 154.102 177.125 155.016 177.125 155.969ZM179.605 168.113C177.735 169.109 175.648 169.628 173.529 169.625C171.412 169.628 169.326 169.108 167.457 168.113C167.914 166.869 168.741 165.796 169.828 165.038C170.914 164.28 172.207 163.873 173.531 163.873C174.856 163.873 176.149 164.28 177.235 165.038C178.321 165.796 179.148 166.869 179.605 168.113Z" stroke="black" stroke-width="1.5" stroke-linecap="round" stroke-linejoin="round"/>
<path d="M261.75 17.25H268.937M261.75 23H268.937M261.75 28.75H268.937M241.625 37.375H270.375C271.519 37.375 272.616 36.9206 273.424 36.1119C274.233 35.3031 274.687 34.2062 274.687 33.0625V12.9375C274.687 11.7938 274.233 10.6969 273.424 9.8881C272.616 9.07935 271.519 8.625 270.375 8.625H241.625C240.481 8.625 239.384 9.07935 238.576 9.8881C237.767 10.6969 237.312 11.7938 237.312 12.9375V33.0625C237.312 34.2062 237.767 35.3031 238.576 36.1119C239.384 36.9206 240.481 37.375 241.625 37.375ZM253.125 17.9687C253.125 18.4407 253.032 18.908 252.851 19.344C252.671 19.78 252.406 20.1762 252.072 20.5099C251.739 20.8436 251.343 21.1083 250.907 21.2889C250.471 21.4695 250.003 21.5625 249.531 21.5625C249.059 21.5625 248.592 21.4695 248.156 21.2889C247.72 21.1083 247.324 20.8436 246.99 20.5099C246.656 20.1762 246.392 19.78 246.211 19.344C246.03 18.908 245.937 18.4407 245.937 17.9687C245.937 17.0156 246.316 16.1015 246.99 15.4276C247.664 14.7536 248.578 14.375 249.531 14.375C250.484 14.375 251.398 14.7536 252.072 15.4276C252.746 16.1015 253.125 17.0156 253.125 17.9687ZM255.605 30.1128C253.735 31.1088 251.648 31.6283 249.529 31.625C247.412 31.6276 245.326 31.1082 243.457 30.1128C243.914 28.8693 244.741 27.796 245.828 27.0378C246.914 26.2796 248.207 25.873 249.531 25.873C250.856 25.873 252.149 26.2796 253.235 27.0378C254.321 27.796 255.148 28.8693 255.605 30.1128Z" stroke="black" stroke-width="1.5" stroke-linecap="round" stroke-linejoin="round"/>
<path d="M261.75 86.25H268.937M261.75 92H268.937M261.75 97.75H268.937M241.625 106.375H270.375C271.519 106.375 272.616 105.921 273.424 105.112C274.233 104.303 274.687 103.206 274.687 102.062V81.9375C274.687 80.7938 274.233 79.6969 273.424 78.8881C272.616 78.0794 271.519 77.625 270.375 77.625H241.625C240.481 77.625 239.384 78.0794 238.576 78.8881C237.767 79.6969 237.312 80.7938 237.312 81.9375V102.062C237.312 103.206 237.767 104.303 238.576 105.112C239.384 105.921 240.481 106.375 241.625 106.375ZM253.125 86.9687C253.125 87.4407 253.032 87.908 252.851 88.344C252.671 88.78 252.406 89.1762 252.072 89.5099C251.739 89.8436 251.343 90.1083 250.907 90.2889C250.471 90.4695 250.003 90.5625 249.531 90.5625C249.059 90.5625 248.592 90.4695 248.156 90.2889C247.72 90.1083 247.324 89.8436 246.99 89.5099C246.656 89.1762 246.392 88.78 246.211 88.344C246.03 87.908 245.937 87.4407 245.937 86.9687C245.937 86.0156 246.316 85.1015 246.99 84.4276C247.664 83.7536 248.578 83.375 249.531 83.375C250.484 83.375 251.398 83.7536 252.072 84.4276C252.746 85.1015 253.125 86.0156 253.125 86.9687ZM255.605 99.1128C253.735 100.109 251.648 100.628 249.529 100.625C247.412 100.628 245.326 100.108 243.457 99.1128C243.914 97.8693 244.741 96.796 245.828 96.0378C246.914 95.2796 248.207 94.873 249.531 94.873C250.856 94.873 252.149 95.2796 253.235 96.0378C254.321 96.796 255.148 97.8693 255.605 99.1128Z" stroke="black" stroke-width="1.5" stroke-linecap="round" stroke-linejoin="round"/>
<path d="M261.75 155.25H268.937M261.75 161H268.937M261.75 166.75H268.937M241.625 175.375H270.375C271.519 175.375 272.616 174.921 273.424 174.112C274.233 173.303 274.687 172.206 274.687 171.062V150.937C274.687 149.794 274.233 148.697 273.424 147.888C272.616 147.079 271.519 146.625 270.375 146.625H241.625C240.481 146.625 239.384 147.079 238.576 147.888C237.767 148.697 237.312 149.794 237.312 150.937V171.062C237.312 172.206 237.767 173.303 238.576 174.112C239.384 174.921 240.481 175.375 241.625 175.375ZM253.125 155.969C253.125 156.441 253.032 156.908 252.851 157.344C252.671 157.78 252.406 158.176 252.072 158.51C251.739 158.844 251.343 159.108 250.907 159.289C250.471 159.47 250.003 159.562 249.531 159.562C249.059 159.562 248.592 159.47 248.156 159.289C247.72 159.108 247.324 158.844 246.99 158.51C246.656 158.176 246.392 157.78 246.211 157.344C246.03 156.908 245.937 156.441 245.937 155.969C245.937 155.016 246.316 154.102 246.99 153.428C247.664 152.754 248.578 152.375 249.531 152.375C250.484 152.375 251.398 152.754 252.072 153.428C252.746 154.102 253.125 155.016 253.125 155.969ZM255.605 168.113C253.735 169.109 251.648 169.628 249.529 169.625C247.412 169.628 245.326 169.108 243.457 168.113C243.914 166.869 244.741 165.796 245.828 165.038C246.914 164.28 248.207 163.873 249.531 163.873C250.856 163.873 252.149 164.28 253.235 165.038C254.321 165.796 255.148 166.869 255.605 168.113Z" stroke="black" stroke-width="1.5" stroke-linecap="round" stroke-linejoin="round"/>
<path fill-rule="evenodd" clip-rule="evenodd" d="M37.603 31.799C38.025 31.3122 38.5467 30.922 39.1329 30.6547C39.719 30.3874 40.3558 30.2494 41 30.25C42.357 30.25 43.573 30.85 44.397 31.799C45.0397 31.7531 45.6847 31.8461 46.2883 32.0716C46.8919 32.2971 47.4399 32.6499 47.895 33.106C48.3509 33.5611 48.7036 34.1089 48.9291 34.7123C49.1546 35.3156 49.2477 35.9605 49.202 36.603C49.6886 37.0251 50.0787 37.5469 50.3458 38.133C50.6129 38.7191 50.7507 39.3559 50.75 40C50.7506 40.6442 50.6126 41.281 50.3453 41.8671C50.078 42.4533 49.6878 42.975 49.201 43.397C49.2467 44.0395 49.1536 44.6844 48.9281 45.2877C48.7026 45.8911 48.3499 46.4389 47.894 46.894C47.4389 47.3499 46.8911 47.7026 46.2877 47.9281C45.6844 48.1536 45.0395 48.2467 44.397 48.201C43.975 48.6878 43.4533 49.078 42.8671 49.3453C42.281 49.6126 41.6442 49.7506 41 49.75C40.3558 49.7506 39.719 49.6126 39.1329 49.3453C38.5467 49.078 38.025 48.6878 37.603 48.201C36.9604 48.247 36.3154 48.1542 35.7118 47.9289C35.1082 47.7035 34.5602 47.3509 34.105 46.895C33.649 46.4398 33.2962 45.8919 33.0707 45.2883C32.8452 44.6847 32.7522 44.0397 32.798 43.397C32.3114 42.9749 31.9213 42.4531 31.6542 41.867C31.3871 41.2809 31.2493 40.6441 31.25 40C31.25 38.643 31.85 37.427 32.799 36.603C32.7533 35.9605 32.8463 35.3156 33.0718 34.7122C33.2973 34.1088 33.65 33.561 34.106 33.106C34.561 32.65 35.1088 32.2973 35.7122 32.0718C36.3156 31.8463 36.9605 31.7533 37.603 31.799ZM44.61 38.186C44.67 38.1061 44.7134 38.0149 44.7377 37.918C44.762 37.821 44.7666 37.7201 44.7514 37.6214C44.7361 37.5226 44.7013 37.4278 44.6489 37.3427C44.5965 37.2576 44.5276 37.1838 44.4463 37.1257C44.3649 37.0675 44.2728 37.0262 44.1753 37.0042C44.0778 36.9822 43.9769 36.9799 43.8785 36.9975C43.7801 37.015 43.6862 37.0521 43.6023 37.1064C43.5184 37.1608 43.4462 37.2314 43.39 37.314L40.154 41.844L38.53 40.22C38.3878 40.0875 38.1998 40.0154 38.0055 40.0188C37.8112 40.0223 37.6258 40.101 37.4884 40.2384C37.351 40.3758 37.2723 40.5612 37.2688 40.7555C37.2654 40.9498 37.3375 41.1378 37.47 41.28L39.72 43.53C39.797 43.6069 39.8898 43.6662 39.992 43.7036C40.0942 43.7411 40.2033 43.7559 40.3118 43.7469C40.4202 43.738 40.5255 43.7055 40.6201 43.6519C40.7148 43.5982 40.7967 43.5245 40.86 43.436L44.61 38.186Z" fill="#31F2CC"/>
<path fill-rule="evenodd" clip-rule="evenodd" d="M194.603 31.799C195.025 31.3122 195.547 30.922 196.133 30.6547C196.719 30.3874 197.356 30.2494 198 30.25C199.357 30.25 200.573 30.85 201.397 31.799C202.04 31.7531 202.685 31.8461 203.288 32.0716C203.892 32.2971 204.44 32.6499 204.895 33.106C205.351 33.5611 205.704 34.1089 205.929 34.7123C206.155 35.3156 206.248 35.9605 206.202 36.603C206.689 37.0251 207.079 37.5469 207.346 38.133C207.613 38.7191 207.751 39.3559 207.75 40C207.751 40.6442 207.613 41.281 207.345 41.8671C207.078 42.4533 206.688 42.975 206.201 43.397C206.247 44.0395 206.154 44.6844 205.928 45.2877C205.703 45.8911 205.35 46.4389 204.894 46.894C204.439 47.3499 203.891 47.7026 203.288 47.9281C202.684 48.1536 202.04 48.2467 201.397 48.201C200.975 48.6878 200.453 49.078 199.867 49.3453C199.281 49.6126 198.644 49.7506 198 49.75C197.356 49.7506 196.719 49.6126 196.133 49.3453C195.547 49.078 195.025 48.6878 194.603 48.201C193.96 48.247 193.315 48.1542 192.712 47.9289C192.108 47.7035 191.56 47.3509 191.105 46.895C190.649 46.4398 190.296 45.8919 190.071 45.2883C189.845 44.6847 189.752 44.0397 189.798 43.397C189.311 42.9749 188.921 42.4531 188.654 41.867C188.387 41.2809 188.249 40.6441 188.25 40C188.25 38.643 188.85 37.427 189.799 36.603C189.753 35.9605 189.846 35.3156 190.072 34.7122C190.297 34.1088 190.65 33.561 191.106 33.106C191.561 32.65 192.109 32.2973 192.712 32.0718C193.316 31.8463 193.96 31.7533 194.603 31.799ZM201.61 38.186C201.67 38.1061 201.713 38.0149 201.738 37.918C201.762 37.821 201.767 37.7201 201.751 37.6214C201.736 37.5226 201.701 37.4278 201.649 37.3427C201.596 37.2576 201.528 37.1838 201.446 37.1257C201.365 37.0675 201.273 37.0262 201.175 37.0042C201.078 36.9822 200.977 36.9799 200.878 36.9975C200.78 37.015 200.686 37.0521 200.602 37.1064C200.518 37.1608 200.446 37.2314 200.39 37.314L197.154 41.844L195.53 40.22C195.388 40.0875 195.2 40.0154 195.005 40.0188C194.811 40.0223 194.626 40.101 194.488 40.2384C194.351 40.3758 194.272 40.5612 194.269 40.7555C194.265 40.9498 194.338 41.1378 194.47 41.28L196.72 43.53C196.797 43.6069 196.89 43.6662 196.992 43.7036C197.094 43.7411 197.203 43.7559 197.312 43.7469C197.42 43.738 197.525 43.7055 197.62 43.6519C197.715 43.5982 197.797 43.5245 197.86 43.436L201.61 38.186Z" fill="#31F2CC"/>
<path fill-rule="evenodd" clip-rule="evenodd" d="M117 101.25C111.615 101.25 107.25 105.615 107.25 111C107.25 116.385 111.615 120.75 117 120.75C122.385 120.75 126.75 116.385 126.75 111C126.75 105.615 122.385 101.25 117 101.25ZM115.28 108.22C115.211 108.146 115.129 108.087 115.037 108.046C114.945 108.005 114.845 107.983 114.745 107.981C114.644 107.98 114.544 107.998 114.45 108.036C114.357 108.074 114.272 108.13 114.201 108.201C114.13 108.272 114.074 108.357 114.036 108.45C113.998 108.544 113.98 108.644 113.981 108.745C113.983 108.845 114.005 108.945 114.046 109.037C114.087 109.129 114.146 109.211 114.22 109.28L115.94 111L114.22 112.72C114.146 112.789 114.087 112.871 114.046 112.963C114.005 113.055 113.983 113.155 113.981 113.255C113.98 113.356 113.998 113.456 114.036 113.55C114.074 113.643 114.13 113.728 114.201 113.799C114.272 113.87 114.357 113.926 114.45 113.964C114.544 114.002 114.644 114.02 114.745 114.019C114.845 114.017 114.945 113.995 115.037 113.954C115.129 113.913 115.211 113.854 115.28 113.78L117 112.06L118.72 113.78C118.789 113.854 118.871 113.913 118.963 113.954C119.055 113.995 119.155 114.017 119.255 114.019C119.356 114.02 119.456 114.002 119.55 113.964C119.643 113.926 119.728 113.87 119.799 113.799C119.87 113.728 119.926 113.643 119.964 113.55C120.002 113.456 120.02 113.356 120.019 113.255C120.017 113.155 119.995 113.055 119.954 112.963C119.913 112.871 119.854 112.789 119.78 112.72L118.06 111L119.78 109.28C119.854 109.211 119.913 109.129 119.954 109.037C119.995 108.945 120.017 108.845 120.019 108.745C120.02 108.644 120.002 108.544 119.964 108.45C119.926 108.357 119.87 108.272 119.799 108.201C119.728 108.13 119.643 108.074 119.55 108.036C119.456 107.998 119.356 107.98 119.255 107.981C119.155 107.983 119.055 108.005 118.963 108.046C118.871 108.087 118.789 108.146 118.72 108.22L117 109.94L115.28 108.22Z" fill="#FA6D3E"/>
</svg>
