<?xml version="1.0" encoding="UTF-8"?>
<svg id="_圖層_1" data-name="圖層 1" xmlns="http://www.w3.org/2000/svg" xmlns:xlink="http://www.w3.org/1999/xlink" viewBox="0 0 25 25">
  <defs>
    <style>
      .cls-1 {
        fill: #fff;
      }

      .cls-2 {
        fill: aqua;
      }
    </style>
    <symbol id="_行事曆" data-name="行事曆" viewBox="0 0 64 63.72">
      <path class="cls-1" d="M59,5.92h-3.1v-.92c0-2.75-2.25-5-5-5h-.07c-2.75,0-5,2.25-5,5v.92H18.17v-.92c0-2.75-2.25-5-5-5h-.07c-2.75,0-5,2.25-5,5v.92h-3.1C2.25,5.92,0,8.17,0,10.92V58.72c0,2.75,2.25,5,5,5H59c2.75,0,5-2.25,5-5V10.92c0-2.75-2.25-5-5-5Zm-11.18-.92c0-1.65,1.34-3,3-3h.07c1.65,0,3,1.35,3,3V13.89c0,1.65-1.35,3-3,3h-.07c-1.66,0-3-1.35-3-3V5Zm-37.73,0c0-1.65,1.34-3,3-3h.07c1.65,0,3,1.35,3,3V13.89c0,1.65-1.35,3-3,3h-.07c-1.66,0-3-1.35-3-3V5ZM59,59.72H5c-.54,0-1-.46-1-1V23.57H60V58.72c0,.54-.46,1-1,1Z"/>
    </symbol>
  </defs>
  <circle class="cls-2" cx="12.5" cy="12.5" r="12.5"/>
  <use width="64" height="63.72" transform="translate(5.39 5.5) scale(.22)" xlink:href="#_行事曆"/>
</svg>