<?xml version="1.0" encoding="UTF-8"?>
<svg id="_圖層_1" data-name="圖層 1" xmlns="http://www.w3.org/2000/svg" xmlns:xlink="http://www.w3.org/1999/xlink" viewBox="0 0 24 24">
  <defs>
    <style>
      .cls-1 {
        fill: aqua;
      }
    </style>
    <symbol id="_到網頁" data-name="到網頁" viewBox="0 0 64 67.8">
      <g>
        <polygon points="37.42 30.18 37.42 64.29 46.2 55.52 52.57 67.8 57.2 65.4 51.06 53.57 62.91 53.57 37.42 30.18"/>
        <path d="M63.52,37.51c.06-.32,.11-.65,.15-.98,.03-.18,.05-.35,.07-.53,.04-.31,.08-.62,.11-.94,.02-.24,.04-.49,.06-.73,.02-.25,.04-.51,.05-.76,.03-.52,.04-1.03,.04-1.55s-.01-1.01-.04-1.52c-.02-.32-.04-.63-.07-.95-.01-.17-.02-.33-.04-.5-.04-.4-.09-.8-.14-1.2,0-.06-.02-.13-.02-.19-.06-.42-.12-.84-.2-1.26,0-.03,0-.05-.01-.08,0,0,0,0,0,0C60.96,12.28,49.31,1.43,34.89,.14c-.02,0-.04,0-.06,0-.44-.04-.88-.07-1.33-.09-.5-.03-.99-.04-1.5-.04s-1,.01-1.5,.04c-.45,.02-.89,.05-1.33,.09-.02,0-.04,0-.06,0C14.69,1.43,3.04,12.28,.52,26.32c0,0,0,0,0,0,0,.03,0,.05-.01,.08-.07,.42-.14,.83-.2,1.26,0,.06-.02,.13-.02,.19-.05,.4-.1,.8-.14,1.2-.02,.17-.02,.33-.04,.5-.02,.31-.05,.63-.07,.95-.02,.5-.04,1.01-.04,1.52s.01,1.01,.04,1.51c.02,.33,.04,.66,.07,.99,.01,.15,.02,.3,.03,.45,.04,.42,.09,.83,.14,1.24,0,.05,.01,.1,.02,.14,.06,.45,.13,.89,.21,1.33,0,0,0,.02,0,.02h0c2.35,13.11,12.68,23.44,25.79,25.79,0,0,0,0,0,0,.1,.02,.2,.03,.29,.05,.3,.05,.6,.1,.9,.14,.21,.03,.41,.05,.62,.08,.28,.04,.56,.07,.84,.1,.27,.03,.55,.04,.83,.06,.22,.02,.44,.04,.67,.04,.51,.03,1.02,.04,1.54,.04h.09v-7.46s-.06,.01-.09,.01c-1.43,0-2.83-.13-4.2-.37-1.05-3.22-2.02-7.46-2.62-12.69,2.21,.14,4.48,.21,6.82,.21h.09v-4.26h-.09c-2.55,0-4.96-.09-7.21-.24-.15-2.25-.24-4.65-.24-7.2s.09-4.96,.24-7.21c2.25-.15,4.65-.24,7.21-.24s4.95,.09,7.19,.24c0,.13,.02,.25,.03,.38,.65,.23,1.27,.6,1.8,1.08l2.62,2.41c-.04-1.18-.09-2.33-.16-3.48,5.24,.6,9.48,1.57,12.7,2.62,.24,1.37,.37,2.77,.37,4.2s-.14,2.82-.37,4.19c-1,.33-2.09,.64-3.29,.95l2.51,2.3s0,0,0,0l5.91,5.43c.99-2.27,1.73-4.68,2.18-7.18,0,0,0,0,0,0,.01-.06,.02-.12,.03-.19ZM22.95,9.2c-.91,3.42-1.62,7.38-2.08,11.68-4.31,.45-8.26,1.16-11.68,2.07,2.5-6.26,7.49-11.26,13.76-13.76Zm0,45.62c-6.26-2.49-11.26-7.49-13.76-13.76,3.43,.91,7.38,1.62,11.68,2.07,.45,4.31,1.16,8.26,2.08,11.68Zm-2.44-15.99c-5.24-.6-9.47-1.57-12.69-2.62-.24-1.36-.37-2.76-.37-4.19s.13-2.83,.37-4.2c3.22-1.05,7.46-2.02,12.69-2.62-.14,2.21-.21,4.49-.21,6.82s.08,4.6,.21,6.81Zm11.49-18.52c-2.33,0-4.61,.08-6.81,.21,.6-5.24,1.57-9.47,2.62-12.69,1.36-.24,2.77-.37,4.2-.37s2.82,.13,4.18,.36c1.05,3.22,2.02,7.45,2.62,12.7-2.2-.14-4.47-.21-6.8-.21Zm11.12,.57c-.45-4.31-1.16-8.26-2.07-11.68,6.26,2.49,11.26,7.49,13.76,13.76-3.43-.91-7.38-1.62-11.69-2.08Z"/>
      </g>
    </symbol>
  </defs>
  <circle class="cls-1" cx="12" cy="12" r="12"/>
  <use width="64" height="67.8" transform="translate(4.4 3.92) scale(.24)" xlink:href="#_到網頁"/>
</svg>