<?xml version="1.0" encoding="UTF-8"?>
<svg id="_圖層_1" data-name="圖層 1" xmlns="http://www.w3.org/2000/svg" xmlns:xlink="http://www.w3.org/1999/xlink" viewBox="0 0 25 25">
  <defs>
    <style>
      .cls-1 {
        fill: #fff;
      }

      .cls-2 {
        fill: aqua;
      }
    </style>
    <symbol id="_購物車" data-name="購物車" viewBox="0 0 70.5 63">
      <g>
        <path class="cls-1" d="M67,41.5H17.75v-2.43l45.23-5.99c2.42-.39,4.09-2.29,4.15-4.74V13.42c0-2.49-2.01-4.49-4.5-4.5H17.75v-3.42c-.01-3.05-2.45-5.49-5.5-5.5H3.5C1.57,0,0,1.57,0,3.5s1.57,3.5,3.5,3.5h7.25V43c.01,3.05,2.45,5.49,5.5,5.5h50.75c1.93,0,3.5-1.57,3.5-3.5s-1.57-3.5-3.5-3.5Zm-29.56-10.08l-8.6,1.14V13.92h8.6V31.42Zm4-17.5h8.6v15.83l-8.6,1.14V13.92Zm20.69,14.23l-8.1,1.07V13.92h8.1v14.23ZM24.85,13.92v19.17l-7.1,.94V13.92h7.1Z"/>
        <path class="cls-1" d="M26.67,49.17c-3.82,0-6.92,3.1-6.92,6.92s3.1,6.92,6.92,6.92,6.92-3.1,6.92-6.92-3.1-6.92-6.92-6.92Z"/>
        <path class="cls-1" d="M60,49.17c-3.82,0-6.92,3.1-6.92,6.92s3.1,6.92,6.92,6.92,6.92-3.1,6.92-6.92-3.1-6.92-6.92-6.92Z"/>
      </g>
    </symbol>
  </defs>
  <circle class="cls-2" cx="12.5" cy="12.5" r="12.5"/>
  <use width="70.5" height="63" transform="translate(4.72 5.5) scale(.22)" xlink:href="#_購物車"/>
</svg>