<?xml version="1.0" encoding="UTF-8"?>
<svg id="_圖層_1" data-name="圖層 1" xmlns="http://www.w3.org/2000/svg" xmlns:xlink="http://www.w3.org/1999/xlink" viewBox="0 0 25 25">
  <defs>
    <style>
      .cls-1 {
        fill: #fff;
      }

      .cls-2 {
        fill: aqua;
      }
    </style>
    <symbol id="_音樂" data-name="音樂" viewBox="0 0 61.9 60.62">
      <path class="cls-1" d="M61.83,46.3h.06V.16l.02-.16h-.02s0,0,0,0h-.05S16.94,6.02,16.94,6.02h0V42.48c-1.78-.57-3.78-.8-5.86-.6C4.48,42.53-.47,47.22,.03,52.38c.5,5.15,6.25,8.81,12.85,8.17,6.6-.64,11.54-5.34,11.04-10.49,0-.09-.03-.17-.04-.26h.06V18.17l30.95-4.52v25.33c-1.78-.57-3.78-.8-5.86-.6-6.6,.64-11.54,5.34-11.04,10.49,.5,5.15,6.25,8.81,12.85,8.17,6.6-.64,11.54-5.34,11.04-10.49,0-.09-.03-.17-.04-.26Z"/>
    </symbol>
  </defs>
  <circle class="cls-2" cx="12.5" cy="12.5" r="12.5"/>
  <use width="61.9" height="60.62" transform="translate(5.68 5.79) scale(.22)" xlink:href="#_音樂"/>
</svg>